PathFileType	4	(X/Y/Z)	/Users/visionmauri/Downloads/Videos/OAW10-top_Sports2D/OAW10-top_Sports2D_px_person00.trc
DataRate	CameraRate	NumFrames	NumMarkers	Units	OrigDataRate	OrigDataStartFrame	OrigNumFrames
25.0	25.0	5	22	m	25.0	0	1754
Frame#	Time	Hip			RHip			RKnee			RAnkle			RBigToe			RSmallToe			RHeel			LHip			LKnee			LAnkle			LBigToe			LSmallToe			LHeel			Neck			Head			Nose			RShoulder			RElbow			RWrist			LShoulder			LElbow			LWrist			
		X1	Y1	Z1	X2	Y2	Z2	X3	Y3	Z3	X4	Y4	Z4	X5	Y5	Z5	X6	Y6	Z6	X7	Y7	Z7	X8	Y8	Z8	X9	Y9	Z9	X10	Y10	Z10	X11	Y11	Z11	X12	Y12	Z12	X13	Y13	Z13	X14	Y14	Z14	X15	Y15	Z15	X16	Y16	Z16	X17	Y17	Z17	X18	Y18	Z18	X19	Y19	Z19	X20	Y20	Z20	X21	Y21	Z21	X22	Y22	Z22
0	0.0	511.0565596566131	450.9773077716948	0.0	500.9969241950526	451.64799199104186	0.0	500.99691729268477	502.61671271133787	0.0	499.65566656659917	550.2322307969172	0.0	499.6556867306234	562.9744328439855	0.0	492.94926425756864	561.6331207257845	0.0	500.9969176489598	555.5973259272145	0.0	522.4574743793245	451.6479471672121	0.0	521.1161723901366	502.61671268544853	0.0	519.7748892586555	550.2322308933645	0.0	515.0804200391809	562.9744596622941	0.0	522.4574567887126	562.3037960920935	0.0	518.4336165462364	555.5973347471628	0.0	511.7271954733183	375.194806758838	0.0	511.7271979089788	349.7104340781344	0.0	510.38586498898974	368.4884180325085	0.0	489.596025222738	383.24247800256694	0.0	484.90154328174157	422.13968762773715	0.0	484.9015389911361	454.3304650912695	0.0	534.5290213734197	382.5718083233191	0.0	541.2354489396856	422.13969268885717	0.0	539.2235066542703	450.30662661258657	0.0
1	0.04002281802624073	511.08082858976326	451.0377529551786	0.0	500.93540275824324	451.72447943157715	0.0	500.8850352701397	502.60583147754085	0.0	499.5738716826025	549.9729667509827	0.0	499.5556580502561	562.8028452325816	0.0	492.7493405179452	561.6741839979863	0.0	501.12364969689276	555.4920440350348	0.0	522.3680698193248	451.4943647184941	0.0	521.0414728396808	502.8176394369922	0.0	519.697148058653	550.4050378543159	0.0	515.2684670792135	563.2024183956956	0.0	522.3616346258067	562.5383245325112	0.0	518.381535929135	555.4961929790894	0.0	511.53864212784345	375.3381923121519	0.0	511.5020076697939	349.49485770795496	0.0	510.41743982518256	368.5005335043053	0.0	489.34750442045544	383.5270768483337	0.0	484.9511004660214	422.2670058269629	0.0	484.9667299449758	454.36560568356447	0.0	534.5376380442191	382.6483252859034	0.0	540.9597917455623	422.2565211527898	0.0	539.1676122203719	450.34018345997157	0.0
2	0.08004563605248145	511.0143247447969	451.1492257541865	0.0	500.64508025055903	451.7683837971939	0.0	500.83775736138324	502.68602923284953	0.0	499.52503524113035	549.6145935086706	0.0	499.3464770923856	562.6003298235669	0.0	492.46374773966227	561.7648113407156	0.0	501.318214041702	555.1875946351425	0.0	522.172808997978	451.2643787703706	0.0	520.8693632114516	503.0032803939754	0.0	519.55217340885	550.5892923008067	0.0	515.4323280858692	563.5586419799648	0.0	522.3689641492118	562.9023405343036	0.0	518.2362589806405	555.3737957494457	0.0	511.3446704586394	375.55851822242715	0.0	511.3548817834921	349.1318898854439	0.0	510.35748449090084	368.70325915105053	0.0	489.15933006998	383.75475072237606	0.0	485.0665121509161	422.3745601103548	0.0	484.9047015359549	454.37738301866216	0.0	534.4999729260619	382.77885980857906	0.0	540.7490854904667	422.34399679552064	0.0	539.1032596415419	450.5869752350955	0.0
3	0.12006845407872219	510.8956529681607	451.0913807492848	0.0	500.3043803805445	451.61446113506315	0.0	500.9393552504232	502.70578039419286	0.0	499.54426349098827	549.4251238448127	0.0	499.25934033158654	562.4912062070406	0.0	492.2386099427618	561.8481962311215	0.0	501.41224818986996	554.9328310684976	0.0	522.0411328610883	451.08735384403707	0.0	520.7280963153172	502.9443178998956	0.0	519.4967061264266	550.6035835743622	0.0	515.4753427404524	563.8238371284631	0.0	522.4582500170349	563.1689084804026	0.0	518.1224602856116	555.2919688621904	0.0	511.28002354866163	375.6690387447032	0.0	511.46830031976856	348.8014372650157	0.0	510.2370429359723	368.81866265054157	0.0	489.3594813599017	383.72813998386084	0.0	485.190349990099	422.3021882653929	0.0	484.7445287518401	454.28235458150755	0.0	534.4323912751476	382.84793095362716	0.0	540.7793683133613	422.33939127060404	0.0	539.1146374319616	450.93801836678216	0.0
4	0.1600912721049629	510.8310214497521	450.6376557681089	0.0	500.3335958535755	451.24748425156764	0.0	501.0811338022989	502.49783328624625	0.0	499.6042826024211	549.5017000969148	0.0	499.3770348052703	562.4826349475662	0.0	492.2835043093758	561.8157569469979	0.0	501.40955648877974	554.9287608070224	0.0	522.1424438326885	451.0375227264905	0.0	520.715735481287	502.65589666072157	0.0	519.5631303318077	550.5120921253152	0.0	515.5052879699425	563.8704890219462	0.0	522.4692152073229	563.2102203379812	0.0	518.1385911195514	555.2517409180618	0.0	511.37628251869376	375.60823237580854	0.0	511.6229780690193	348.6482713558661	0.0	510.1682805305595	368.53687664182	0.0	489.78199011948294	383.5630907493851	0.0	485.2596526516823	422.081504122843	0.0	484.6362804852306	454.1682928516326	0.0	534.3934403789634	382.83303974546476	0.0	540.9445671351926	422.3122783503556	0.0	539.1476556048391	451.1581966937279	0.0
